<svg width="127" height="17" viewBox="0 0 127 17" fill="none" xmlns="http://www.w3.org/2000/svg">
<path d="M2.88053 14.2364H0.212521V5.59092H2.88053V14.2364ZM1.54509 4.41159C0.692131 4.41159 0 3.70053 0 2.84205C0 1.98357 0.692131 1.28696 1.54509 1.28696C2.39805 1.28696 3.09018 1.98357 3.09018 2.84205C3.09018 3.70053 2.39805 4.41159 1.54509 4.41159ZM12.8662 14.2364H10.2039V10.0278C10.2039 9.02484 10.1838 7.73857 8.81677 7.73857C7.42964 7.73857 7.21711 8.82829 7.21711 9.95558V14.2364H4.55198V5.59092H7.11085V6.77025H7.14819C7.5043 6.09098 8.37449 5.37413 9.6726 5.37413C12.3722 5.37413 12.869 7.16336 12.869 9.48732V14.2364H12.8662Z" fill="#696969"/>
<path d="M53.0399 4.49415C53.0501 4.6349 53.0501 4.77568 53.0501 4.91643C53.0501 9.20944 49.7328 14.156 43.6698 14.156C41.8019 14.156 40.0667 13.6231 38.6071 12.6982C38.8725 12.7283 39.1277 12.7384 39.4033 12.7384C40.9445 12.7384 42.3633 12.2257 43.4963 11.351C42.0469 11.3208 40.8322 10.3858 40.4138 9.09886C40.6179 9.129 40.822 9.14912 41.0364 9.14912C41.3324 9.14912 41.6284 9.10889 41.904 9.03855C40.3934 8.7369 39.2603 7.4299 39.2603 5.85144V5.81124C39.6992 6.05253 40.2096 6.20334 40.7506 6.22342C39.8625 5.64028 39.2808 4.64496 39.2808 3.51891C39.2808 2.91568 39.444 2.36272 39.7299 1.88012C41.3528 3.85069 43.7923 5.13758 46.5278 5.27835C46.4767 5.03706 46.4461 4.78574 46.4461 4.53438C46.4461 2.74476 47.9159 1.28696 49.743 1.28696C50.6922 1.28696 51.5496 1.67906 52.1519 2.31246C52.897 2.17171 53.6114 1.90024 54.2443 1.52825C53.9993 2.28232 53.4788 2.91571 52.7949 3.31784C53.4584 3.2475 54.1014 3.06649 54.6934 2.81517C54.2444 3.45859 53.683 4.03164 53.0399 4.49415Z" fill="#696969"/>
<path d="M82.8617 16.0863V8.89145H80.4315V6.03236H82.8617V3.77965C82.8617 1.33215 84.3699 0 86.572 0C87.6271 0 88.5333 0.0785464 88.7963 0.113107V2.67058H87.2691C86.0714 2.67058 85.8401 3.23611 85.8401 4.06242V6.03236H88.5428L88.1721 8.89145H85.8401V16.0863" fill="#696969"/>
<path d="M121.029 1.28696C117.763 1.28696 114.534 3.31513 114.534 6.59758C114.534 8.68506 115.795 9.87112 116.559 9.87112C116.874 9.87112 117.056 9.05274 117.056 8.82145C117.056 8.54569 116.301 7.95859 116.301 6.81107C116.301 4.42707 118.25 2.73692 120.771 2.73692C122.94 2.73692 124.544 3.88445 124.544 5.99268C124.544 7.56719 123.866 10.5205 121.669 10.5205C120.876 10.5205 120.198 9.98676 120.198 9.22175C120.198 8.10092 121.039 7.01566 121.039 5.85925C121.039 3.89631 118.049 4.25213 118.049 6.62426C118.049 7.12241 118.116 7.67393 118.355 8.1276C117.916 9.88891 117.018 12.5131 117.018 14.3278C117.018 14.8882 117.104 15.4397 117.161 16.0001C117.269 16.1128 117.215 16.1009 117.381 16.0446C118.985 13.9986 118.928 13.5983 119.654 10.9208C120.045 11.6146 121.058 11.9883 121.86 11.9883C125.241 11.9883 126.76 8.9193 126.76 6.1528C126.76 3.20839 124.028 1.28696 121.029 1.28696Z" fill="#696969"/>
</svg>
